<svg xmlns="http://www.w3.org/2000/svg" width="18" height="22" viewBox="0 0 18 22">
  <g id="pdf" transform="translate(-1438.001 -591)">
    <g id="Group_573" data-name="Group 573" transform="translate(29.002 5)">
      <path id="Path_145" data-name="Path 145" d="M14,2H6A2,2,0,0,0,4,4V20a2,2,0,0,0,2,2H18a2,2,0,0,0,2-2V8Z" transform="translate(1405.999 585)" fill="none" stroke="#fff" stroke-linecap="round" stroke-linejoin="round" stroke-width="2"/>
      <path id="Path_146" data-name="Path 146" d="M14,2V8h6" transform="translate(1405.999 585)" fill="none" stroke="#fff" stroke-linecap="round" stroke-linejoin="round" stroke-width="2"/>
    </g>
    <path id="Path_377" data-name="Path 377" d="M92.287,138.7a.876.876,0,0,1-.663-.308l-.038-.043-.024-.052a1.845,1.845,0,0,1,.485-2.148,8.084,8.084,0,0,1,3.035-1.8,24.133,24.133,0,0,0,1.144-2.456,4.709,4.709,0,0,1-.8-3.679,1.351,1.351,0,0,1,1.11-.926l.057,0a1.124,1.124,0,0,1,1.135.943,7.193,7.193,0,0,1-.609,3.576,8.065,8.065,0,0,0,.688.883,9.967,9.967,0,0,0,.743.8,7.6,7.6,0,0,1,3.358.139,1.35,1.35,0,0,1,1.02,1.23v.008a1.059,1.059,0,0,1-.705,1.066c-.942.345-2.515-.33-3.936-1.594a16.139,16.139,0,0,0-2.641.663,9.758,9.758,0,0,1-2.81,3.544A1.208,1.208,0,0,1,92.287,138.7Zm-.025-.811c.03.012.086.01.208-.053a7.04,7.04,0,0,0,1.957-2.338,5.909,5.909,0,0,0-1.792,1.2C92.1,137.281,92.186,137.7,92.263,137.893Zm7.127-3.678a3.477,3.477,0,0,0,2.561.972c.086-.031.178-.083.177-.3,0-.089-.017-.313-.5-.5A5.607,5.607,0,0,0,99.39,134.214ZM96.772,132.7c-.182.432-.381.868-.592,1.295.465-.134.938-.248,1.406-.34q-.2-.212-.384-.438Q96.975,132.967,96.772,132.7Zm-.147-4.6a.547.547,0,0,0-.44.4,3.457,3.457,0,0,0,.407,2.389,5.226,5.226,0,0,0,.356-2.461C96.881,128.142,96.758,128.1,96.625,128.1Z" transform="translate(1349.6 470.707)" fill="#fff"/>
  </g>
</svg>
